<svg xmlns="http://www.w3.org/2000/svg" version="1.1" viewBox="-5.0 -10.0 110.0 135.0">
 <path d="m9.0195 37.848c0-0.42188 0.24219-0.80859 0.625-0.99219 0.38281-0.17969 0.83594-0.12891 1.1641 0.13672l11.895 9.6289c0.25781 0.20703 0.40625 0.52344 0.40625 0.85547v30.805l4.5117-3.7031v-49.277l-23.113-18.715v86.965l4.5117-3.7031zm0-18.707c0-0.42188 0.24219-0.80859 0.625-0.99219 0.38281-0.18359 0.83594-0.12891 1.1641 0.13672l5.957 4.8242 5.9375 4.8086c0.25781 0.20703 0.40625 0.52344 0.40625 0.85547v11.57c0 0.42188-0.24219 0.80859-0.625 0.99219-0.14844 0.070312-0.3125 0.10937-0.47266 0.10937-0.24609 0-0.49219-0.085937-0.69141-0.24609l-5.9531-4.8203-5.9453-4.8125c-0.25781-0.20703-0.40625-0.52344-0.40625-0.85547v-11.57z"/>
 <path d="m39.809 45.715c0-0.60547 0.49219-1.0977 1.0977-1.0977h16.602c0.60938 0 1.0977 0.49219 1.0977 1.0977v28.281h9.9844v-48.125h-38.766v48.125h9.9844z"/>
 <path d="m11.219 88.051 9.4883-7.7891 0.21094-0.17578v-32.086l-9.6992-7.8477zm1.6641-24.949c0-0.60547 0.49219-1.0977 1.0977-1.0977s1.0977 0.49219 1.0977 1.0977v2.0156c0 0.60547-0.49219 1.0977-1.0977 1.0977-0.60938 0-1.0977-0.49219-1.0977-1.0977z"/>
 <path d="m87.59 91.215-11.891-9.7617-6.4023-5.2539h-40.18l-6.3906 5.25c-0.003906 0.003906-0.007812 0.007812-0.011718 0.011719l-11.938 9.7969c-0.003906 0.003907-0.007813 0.007813-0.011719 0.011719-0.007813 0.003907-0.015625 0.011719-0.023437 0.015625l-4.2578 3.5h85.453l-4.3008-3.5312-0.042969-0.035156zm-56.898-11.723h37.027c0.60547 0 1.0977 0.49219 1.0977 1.0977 0 0.60547-0.49219 1.0977-1.0977 1.0977h-37.027c-0.60547 0-1.0977-0.49219-1.0977-1.0977 0-0.60547 0.49219-1.0977 1.0977-1.0977zm-5.9648 4.8945h48.953c0.60937 0 1.0977 0.49219 1.0977 1.0977 0 0.60938-0.49219 1.0977-1.0977 1.0977h-48.953c-0.60547 0-1.0977-0.49219-1.0977-1.0977s0.49219-1.0977 1.0977-1.0977zm54.918 7.0938h-60.879c-0.60547 0-1.0977-0.49219-1.0977-1.0977 0-0.60547 0.49219-1.0977 1.0977-1.0977h60.883c0.60937 0 1.0977 0.49219 1.0977 1.0977 0 0.60938-0.49219 1.0977-1.0977 1.0977z"/>
 <path d="m14.973 24.484-3.7539-3.043v8.7461l3.7539 3.0391z"/>
 <path d="m20.918 29.297-3.75-3.0352v8.7422l3.75 3.0352z"/>
 <path d="m56.406 73.996v-27.184h-14.402v27.184zm-11.414-14.039c0-0.60547 0.49219-1.0977 1.0977-1.0977 0.60547 0 1.0977 0.49219 1.0977 1.0977v2.0156c0 0.60547-0.49219 1.0977-1.0977 1.0977-0.60938 0-1.0977-0.49219-1.0977-1.0977z"/>
 <path d="m40.121 8.7539h7.9844v3.0898c-2.8984 0.51953-5.1016 3.0625-5.1016 6.1094 0 0.60547 0.49219 1.0977 1.0977 1.0977h4.0078v2.2305c0 0.60547 0.49219 1.0977 1.0977 1.0977s1.0977-0.49219 1.0977-1.0977v-2.2305h4.0117c0.60547 0 1.0977-0.49219 1.0977-1.0977 0-3.0508-2.207-5.5898-5.1094-6.1094v-3.0898h7.9883c2.4961 0 4.5234-2.0312 4.5234-4.5312 0-0.60547-0.49219-1.0977-1.0977-1.0977h-25.027c-0.60547 0-1.0977 0.49219-1.0977 1.0977 0 2.5 2.0312 4.5312 4.5312 4.5312z"/>
 <path d="m95.457 96.875c0.003907 0 0.011719-0.003906 0.015625-0.003906 0.007813-0.003906 0.015625-0.007813 0.019532-0.011719-0.011719 0.003906-0.023438 0.011719-0.035157 0.015625z"/>
 <path d="m70.785 74.578 4.5117 3.7031v-30.805c0-0.33203 0.14844-0.64453 0.41016-0.85547l11.895-9.6289c0.32813-0.26563 0.78125-0.32031 1.1641-0.13672 0.38281 0.18359 0.625 0.56641 0.625 0.99219v52l4.5117 3.7031v-86.965l-23.117 18.711zm4.5117-45.805c0-0.33203 0.14844-0.64453 0.41016-0.85547l11.895-9.6328c0.32813-0.26562 0.78125-0.32031 1.1641-0.13672 0.38281 0.18359 0.625 0.56641 0.625 0.99219v11.57c0 0.33203-0.14844 0.64453-0.41016 0.85547l-5.9336 4.8047c-0.003906 0.003906-0.011719 0.011718-0.019531 0.015625l-5.9414 4.8125c-0.19922 0.16016-0.44141 0.24609-0.69141 0.24609-0.16016 0-0.32422-0.035156-0.47266-0.10937-0.38281-0.17969-0.625-0.56641-0.625-0.99219z"/>
 <path d="m81.242 26.262-3.75 3.0352v8.7422l3.75-3.0352z"/>
 <path d="m87.195 21.441-3.7539 3.0391v8.7461l3.7539-3.0391z"/>
 <path d="m87.195 40.152-9.7031 7.8477v32.086l9.7031 7.9648zm-3.8633 22.949c0-0.60547 0.49219-1.0977 1.0977-1.0977 0.60547 0 1.0977 0.49219 1.0977 1.0977v2.0156c0 0.60547-0.49219 1.0977-1.0977 1.0977-0.60547 0-1.0977-0.49219-1.0977-1.0977z"/>
</svg>