<?xml version="1.0" encoding="iso-8859-1"?>
<!-- Uploaded to: SVG Repo, www.svgrepo.com, Generator: SVG Repo Mixer Tools -->
<svg fill="#000000" version="1.1" id="Layer_1" xmlns="http://www.w3.org/2000/svg" xmlns:xlink="http://www.w3.org/1999/xlink" 
	 viewBox="0 0 512.1 512.1" xml:space="preserve">
<g>
	<g>
		<path d="M507.35,222.8l-131.8-65.9v-36.4l13.3,6.6c1.2,0.6,2.5,0.9,3.8,0.9c1.6,0,3.1-0.4,4.5-1.3c2.5-1.6,4.1-4.3,4.1-7.3V76.8
			c0-3.2-1.8-6.2-4.7-7.6L259.85,0.9c-2.4-1.2-5.2-1.2-7.6,0l-136.5,68.3c-2.9,1.4-4.7,4.4-4.7,7.6v42.7c0,3,1.5,5.7,4.1,7.3
			c2.5,1.5,5.6,1.7,8.3,0.4l13.3-6.6V157l-132,65.8c-2.9,1.4-4.7,4.4-4.7,7.6v42.7c0,3,1.5,5.7,4.1,7.3c1.4,0.8,2.9,1.3,4.5,1.3
			c1.3,0,2.6-0.3,3.8-0.9l13.3-6.6v229.4c0,4.7,3.8,8.5,8.5,8.5h110.9h51.2V384c0-4.7,3.8-8.5,8.5-8.5h102.4c4.7,0,8.5,3.8,8.5,8.5
			v128h51.2h110.9c4.7,0,8.5-3.8,8.5-8.5V274.1l13.3,6.6c1.2,0.6,2.5,0.9,3.8,0.9c1.6,0,3.1-0.4,4.5-1.3c2.5-1.6,4.1-4.3,4.1-7.3
			v-42.7C512.05,227.2,510.25,224.2,507.35,222.8z M30.35,252.6l-13.3,6.6v-23.6l119.5-59.7v23.6L30.35,252.6z M136.55,460.8h-51.2
			v-25.6h51.2V460.8z M136.55,418.1h-51.2v-25.6h51.2V418.1z M136.55,349.9h-51.2v-25.6h51.2V349.9z M136.55,307.2h-51.2v-25.6h51.2
			V307.2z M136.65,264.5h-0.1h-59.7c-4.7,0-8.5,3.8-8.5,8.5v76.8c-4.7,0-8.5,3.8-8.5,8.5s3.8,8.5,8.5,8.5h8.5h59.7v8.5h-59.7
			c-4.7,0-8.5,3.8-8.5,8.5v76.8c-4.7,0-8.5,3.8-8.5,8.5s3.8,8.5,8.5,8.5h8.5h59.7v17.1h-93.8V265.5l93.9-46.9V264.5z M324.35,341.3
			h-8.5h-119.5h-8.5c-4.7,0-8.5-3.8-8.5-8.5s3.8-8.5,8.5-8.5v-76.8c0-4.7,3.8-8.5,8.5-8.5h119.5c4.7,0,8.5,3.8,8.5,8.5v76.8
			c4.7,0,8.5,3.8,8.5,8.5S329.05,341.3,324.35,341.3z M324.35,213.3h-8.5h-119.5h-8.5c-4.7,0-8.5-3.8-8.5-8.5s3.8-8.5,8.5-8.5v-76.8
			c0-4.7,3.8-8.5,8.5-8.5h119.5c4.7,0,8.5,3.8,8.5,8.5v76.8c4.7,0,8.5,3.8,8.5,8.5S329.05,213.3,324.35,213.3z M259.85,43.6
			c-1.2-0.6-2.5-0.9-3.8-0.9s-2.6,0.3-3.8,0.9L141.35,99l-13.3,6.6V82.1l128-64l128,64v23.6l-13.3-6.7L259.85,43.6z M469.35,494.9
			h-93.9v-17.1h59.7h8.5c4.7,0,8.5-3.8,8.5-8.5s-3.8-8.5-8.5-8.5V384c0-4.7-3.8-8.5-8.5-8.5h-59.7V367h59.7h8.5
			c4.7,0,8.5-3.8,8.5-8.5s-3.8-8.5-8.5-8.5v-76.8c0-4.7-3.8-8.5-8.5-8.5h-59.7v-45.9l93.9,46.9V494.9z M426.75,435.2v25.6h-51.2
			v-25.6H426.75z M375.55,418.1v-25.6h51.2v25.6H375.55z M426.75,324.3v25.6h-51.2v-25.6H426.75z M375.55,307.2v-25.6h51.2v25.6
			H375.55z M494.95,259.3l-13.3-6.6l-106.2-53.1V176l119.5,59.7V259.3z"/>
	</g>
</g>
<g>
	<g>
		<rect x="204.85" y="298.7" width="42.7" height="25.6"/>
	</g>
</g>
<g>
	<g>
		<rect x="204.85" y="256" width="42.7" height="25.6"/>
	</g>
</g>
<g>
	<g>
		<path d="M264.55,392.5v42.7c4.7,0,8.5,3.8,8.5,8.5s-3.8,8.5-8.5,8.5V512h34.1V392.5H264.55z"/>
	</g>
</g>
<g>
	<g>
		<rect x="264.55" y="256" width="42.7" height="25.6"/>
	</g>
</g>
<g>
	<g>
		<path d="M247.45,435.3v-42.7h-34.1V512h34.1v-59.7c-4.7,0-8.5-3.8-8.5-8.5S242.75,435.3,247.45,435.3z"/>
	</g>
</g>
<g>
	<g>
		<rect x="264.55" y="298.7" width="42.7" height="25.6"/>
	</g>
</g>
<g>
	<g>
		<rect x="264.55" y="170.7" width="42.7" height="25.6"/>
	</g>
</g>
<g>
	<g>
		<rect x="204.85" y="170.7" width="42.7" height="25.6"/>
	</g>
</g>
<g>
	<g>
		<rect x="204.85" y="128" width="42.7" height="25.6"/>
	</g>
</g>
<g>
	<g>
		<rect x="264.55" y="128" width="42.7" height="25.6"/>
	</g>
</g>
</svg>